<!--?xml version="1.0" standalone="no"?-->              <svg id="sw-js-blob-svg" viewBox="0 0 100 100" xmlns="http://www.w3.org/2000/svg">                    <defs>                         <linearGradient id="sw-gradient" x1="0" x2="1" y1="1" y2="0">                            <stop id="stop1" stop-color="rgba(227, 213, 217, 1)" offset="0%"></stop>                            <stop id="stop2" stop-color="rgba(227, 213, 217, 1)" offset="100%"></stop>                        </linearGradient>                    </defs>                <path fill="url(#sw-gradient)" d="M24,-26.4C31.7,-22.1,38.9,-15.1,41.1,-6.7C43.2,1.7,40.1,11.5,34.2,17.8C28.3,24,19.5,26.7,10.7,30.1C2,33.6,-6.7,37.8,-15.2,36.9C-23.8,35.9,-32.4,29.8,-37,21.5C-41.6,13.2,-42.3,2.8,-40.6,-7.3C-39,-17.4,-35,-27.2,-27.9,-31.6C-20.7,-36.1,-10.4,-35.1,-1.1,-33.8C8.1,-32.5,16.3,-30.8,24,-26.4Z" width="100%" height="100%" transform="translate(50 50)" stroke-width="0" style="transition: all 0.3s ease 0s;"></path>              </svg>