<!--?xml version="1.0" standalone="no"?-->              <svg id="sw-js-blob-svg" viewBox="0 0 100 100" xmlns="http://www.w3.org/2000/svg">                    <defs>                         <linearGradient id="sw-gradient" x1="0" x2="1" y1="1" y2="0">                            <stop id="stop1" stop-color="rgba(228, 213, 218, 1)" offset="0%"></stop>                            <stop id="stop2" stop-color="rgba(228, 213, 218, 1)" offset="100%"></stop>                        </linearGradient>                    </defs>                <path fill="none" d="M17.8,-25.3C20.9,-22.3,19.7,-14.2,20,-7.8C20.3,-1.5,22,3.1,23.1,10C24.3,16.9,25,26.1,21,32.8C17.1,39.6,8.5,43.9,0.5,43.2C-7.5,42.5,-15.1,36.8,-22.2,31.1C-29.3,25.4,-36,19.6,-37.5,12.8C-38.9,5.9,-35,-2.1,-31,-8.7C-27,-15.3,-22.8,-20.5,-17.6,-22.8C-12.4,-25.1,-6.2,-24.5,0.6,-25.3C7.4,-26.1,14.7,-28.3,17.8,-25.3Z" width="100%" height="100%" transform="translate(50 50)" stroke-width="1" style="transition: all 0.3s ease 0s;" stroke="url(#sw-gradient)"></path>              </svg>