<!--?xml version="1.0" standalone="no"?-->              <svg id="sw-js-blob-svg" viewBox="0 0 100 100" xmlns="http://www.w3.org/2000/svg">                    <defs>                         <linearGradient id="sw-gradient" x1="0" x2="1" y1="1" y2="0">                            <stop id="stop1" stop-color="rgba(210, 143, 124, 1)" offset="0%"></stop>                            <stop id="stop2" stop-color="rgba(228, 213, 218, 1)" offset="100%"></stop>                        </linearGradient>                    </defs>                <path fill="url(#sw-gradient)" d="M16,-20.9C21.8,-14.1,28.5,-10.2,33,-3.1C37.5,4,39.8,14.1,35.3,19C30.9,23.9,19.7,23.6,11.1,23.8C2.6,24,-3.4,24.7,-9.2,23.4C-15,22.1,-20.8,18.7,-25.7,13.3C-30.7,7.9,-34.9,0.5,-35,-7.4C-35.1,-15.3,-31,-23.7,-24.5,-30.4C-18,-37,-9,-41.9,-2,-39.5C5.1,-37.2,10.1,-27.6,16,-20.9Z" width="100%" height="100%" transform="translate(50 50)" stroke-width="0" style="transition: all 0.3s ease 0s;" stroke="url(#sw-gradient)"></path>              </svg>